<svg xmlns="http://www.w3.org/2000/svg" viewBox="0 0 800 500" font-family="Arial, sans-serif">
  <defs>
    <marker id="arrow" markerWidth="10" markerHeight="10" refX="9" refY="3" orient="auto" markerUnits="strokeWidth">
      <path d="M0,0 L0,6 L9,3 z" fill="#333"/>
    </marker>
  </defs>
  
  <!-- Client -->
  <rect x="20" y="200" width="120" height="60" rx="8" fill="#4A90D9" stroke="#2E5C8A" stroke-width="2"/>
  <text x="80" y="235" text-anchor="middle" fill="white" font-size="16" font-weight="bold">Client</text>
  
  <!-- Arrow to Docker -->
  <line x1="140" y1="230" x2="200" y2="230" stroke="#333" stroke-width="2" marker-end="url(#arrow)"/>
  <text x="170" y="220" text-anchor="middle" font-size="12" fill="#555">HTTP Request</text>
  
  <!-- Docker Container -->
  <rect x="200" y="80" width="580" height="340" rx="12" fill="#F5F5F5" stroke="#999" stroke-width="2" stroke-dasharray="8,4"/>
  <text x="490" y="105" text-anchor="middle" font-size="14" fill="#666" font-style="italic">Docker Container</text>
  
  <!-- Axum Server -->
  <rect x="230" y="130" width="520" height="260" rx="8" fill="#E8F4E8" stroke="#4A8A4A" stroke-width="2"/>
  <text x="490" y="155" text-anchor="middle" font-size="14" fill="#2E5C2E" font-weight="bold">Axum HTTP Server</text>
  
  <!-- Router Box -->
  <rect x="250" y="180" width="280" height="150" rx="6" fill="#FFF8E1" stroke="#F9A825" stroke-width="2"/>
  <text x="390" y="205" text-anchor="middle" font-size="14" fill="#5D4037" font-weight="bold">Router</text>
  <line x1="260" y1="215" x2="520" y2="215" stroke="#F9A825" stroke-width="1"/>
  
  <!-- Routes -->
  <text x="390" y="240" text-anchor="middle" font-size="12" fill="#333">GET /</text>
  <text x="390" y="260" text-anchor="middle" font-size="12" fill="#333">GET /health</text>
  <text x="390" y="280" text-anchor="middle" font-size="12" fill="#333">GET /api/hello</text>
  <text x="390" y="300" text-anchor="middle" font-size="12" fill="#333">POST /api/echo</text>
  
  <!-- Arrow from Router to Handlers -->
  <line x1="530" y1="255" x2="570" y2="255" stroke="#333" stroke-width="2" marker-end="url(#arrow)"/>
  <text x="550" y="245" text-anchor="middle" font-size="11" fill="#555">routes to</text>
  
  <!-- Handlers Box -->
  <rect x="570" y="200" width="160" height="110" rx="6" fill="#E3F2FD" stroke="#1976D2" stroke-width="2"/>
  <text x="650" y="225" text-anchor="middle" font-size="14" fill="#0D47A1" font-weight="bold">Handlers</text>
  <line x1="580" y1="235" x2="720" y2="235" stroke="#1976D2" stroke-width="1"/>
  <text x="650" y="255" text-anchor="middle" font-size="11" fill="#333">handlers.rs</text>
  <text x="650" y="275" text-anchor="middle" font-size="11" fill="#333">root, health,</text>
  <text x="650" y="290" text-anchor="middle" font-size="11" fill="#333">hello, echo</text>
  
  <!-- Supporting Modules (below Router) -->
  <rect x="250" y="360" width="120" height="40" rx="4" fill="#FCE4EC" stroke="#C2185B" stroke-width="1.5"/>
  <text x="310" y="385" text-anchor="middle" font-size="12" fill="#333">config.rs</text>
  
  <rect x="390" y="360" width="120" height="40" rx="4" fill="#F3E5F5" stroke="#7B1FA2" stroke-width="1.5"/>
  <text x="450" y="385" text-anchor="middle" font-size="12" fill="#333">error.rs</text>
  
  <!-- Response Arrow -->
  <line x1="80" y1="290" x2="80" y2="380" stroke="#333" stroke-width="2"/>
  <line x1="80" y1="380" x2="20" y2="380" stroke="#333" stroke-width="2" marker-end="url(#arrow)"/>
  <text x="50" y="395" text-anchor="middle" font-size="12" fill="#555">HTTP Response</text>
  
  <!-- Legend -->
  <rect x="20" y="450" width="760" height="35" rx="4" fill="#FAFAFA" stroke="#DDD" stroke-width="1"/>
  <circle cx="50" cy="467" r="6" fill="#4A90D9"/>
  <text x="65" y="472" font-size="11" fill="#333">External</text>
  <circle cx="130" cy="467" r="6" fill="#4A8A4A"/>
  <text x="145" y="472" font-size="11" fill="#333">Server</text>
  <circle cx="210" cy="467" r="6" fill="#F9A825"/>
  <text x="225" y="472" font-size="11" fill="#333">Router</text>
  <circle cx="290" cy="467" r="6" fill="#1976D2"/>
  <text x="305" y="472" font-size="11" fill="#333">Handler</text>
  <circle cx="380" cy="467" r="6" fill="#9E9E9E"/>
  <text x="395" y="472" font-size="11" fill="#333">Module</text>
</svg>
