<svg xmlns="http://www.w3.org/2000/svg" viewBox="0 0 800 540" font-family="Arial, sans-serif">
  <defs>
    <marker id="arrow" markerWidth="10" markerHeight="10" refX="9" refY="3" orient="auto" markerUnits="strokeWidth">
      <path d="M0,0 L0,6 L9,3 z" fill="#333"/>
    </marker>
  </defs>
  
  <!-- Client -->
  <rect x="20" y="220" width="120" height="60" rx="8" fill="#4A90D9" stroke="#2E5C8A" stroke-width="2"/>
  <text x="80" y="255" text-anchor="middle" fill="white" font-size="16" font-weight="bold">Client</text>
  
  <!-- Arrow to Docker -->
  <line x1="140" y1="250" x2="200" y2="250" stroke="#333" stroke-width="2" marker-end="url(#arrow)"/>
  <text x="170" y="240" text-anchor="middle" font-size="12" fill="#555">HTTP Request</text>
  
  <!-- Docker Container -->
  <rect x="200" y="80" width="580" height="380" rx="12" fill="#F5F5F5" stroke="#999" stroke-width="2" stroke-dasharray="8,4"/>
  <text x="490" y="105" text-anchor="middle" font-size="14" fill="#666" font-style="italic">Docker Container</text>
  
  <!-- Axum Server -->
  <rect x="230" y="130" width="520" height="300" rx="8" fill="#E8F4E8" stroke="#4A8A4A" stroke-width="2"/>
  <text x="490" y="155" text-anchor="middle" font-size="14" fill="#2E5C2E" font-weight="bold">Axum HTTP Server</text>
  
  <!-- Middleware Layers Box -->
  <rect x="250" y="180" width="480" height="70" rx="6" fill="#E8E8E8" stroke="#666" stroke-width="2"/>
  <text x="490" y="200" text-anchor="middle" font-size="13" fill="#333" font-weight="bold">Middleware Layers</text>
  <line x1="260" y1="210" x2="720" y2="210" stroke="#666" stroke-width="1"/>
  
  <!-- CorsLayer -->
  <rect x="270" y="220" width="100" height="22" rx="3" fill="#FFF8E1" stroke="#F9A825" stroke-width="1"/>
  <text x="320" y="235" text-anchor="middle" font-size="10" fill="#333">CorsLayer</text>
  
  <!-- BodyLimit -->
  <rect x="380" y="220" width="100" height="22" rx="3" fill="#FFF8E1" stroke="#F9A825" stroke-width="1"/>
  <text x="430" y="235" text-anchor="middle" font-size="10" fill="#333">BodyLimit</text>
  
  <!-- RequestLoggingLayer -->
  <rect x="490" y="220" width="140" height="22" rx="3" fill="#E3F2FD" stroke="#1976D2" stroke-width="1.5"/>
  <text x="560" y="235" text-anchor="middle" font-size="10" fill="#0D47A1" font-weight="bold">RequestLoggingLayer</text>
  
  <!-- Router Box -->
  <rect x="250" y="270" width="280" height="130" rx="6" fill="#FFF8E1" stroke="#F9A825" stroke-width="2"/>
  <text x="390" y="295" text-anchor="middle" font-size="14" fill="#5D4037" font-weight="bold">Router</text>
  <line x1="260" y1="305" x2="520" y2="305" stroke="#F9A825" stroke-width="1"/>
  
  <!-- Routes -->
  <text x="390" y="330" text-anchor="middle" font-size="11" fill="#333">GET /</text>
  <text x="390" y="350" text-anchor="middle" font-size="11" fill="#333">GET /health</text>
  <text x="390" y="370" text-anchor="middle" font-size="11" fill="#333">GET /api/hello</text>
  <text x="390" y="390" text-anchor="middle" font-size="11" fill="#333">POST /api/echo</text>
  
  <!-- Arrow from Router to Handlers -->
  <line x1="530" y1="335" x2="570" y2="335" stroke="#333" stroke-width="2" marker-end="url(#arrow)"/>
  <text x="550" y="325" text-anchor="middle" font-size="11" fill="#555">routes to</text>
  
  <!-- Handlers Box -->
  <rect x="570" y="280" width="160" height="100" rx="6" fill="#E3F2FD" stroke="#1976D2" stroke-width="2"/>
  <text x="650" y="305" text-anchor="middle" font-size="14" fill="#0D47A1" font-weight="bold">Handlers</text>
  <line x1="580" y1="315" x2="720" y2="315" stroke="#1976D2" stroke-width="1"/>
  <text x="650" y="335" text-anchor="middle" font-size="11" fill="#333">handlers.rs</text>
  <text x="650" y="355" text-anchor="middle" font-size="11" fill="#333">root, health,</text>
  <text x="650" y="370" text-anchor="middle" font-size="11" fill="#333">hello, echo</text>
  
  <!-- Supporting Modules -->
  <rect x="250" y="450" width="120" height="40" rx="4" fill="#FCE4EC" stroke="#C2185B" stroke-width="1.5"/>
  <text x="310" y="475" text-anchor="middle" font-size="12" fill="#333">config.rs</text>
  
  <rect x="390" y="450" width="120" height="40" rx="4" fill="#F3E5F5" stroke="#7B1FA2" stroke-width="1.5"/>
  <text x="450" y="475" text-anchor="middle" font-size="12" fill="#333">error.rs</text>
  
  <rect x="530" y="450" width="120" height="40" rx="4" fill="#E8EAF6" stroke="#3F51B5" stroke-width="1.5"/>
  <text x="590" y="475" text-anchor="middle" font-size="12" fill="#333">tracing.rs</text>
  
  <!-- Response Arrow -->
  <line x1="80" y1="310" x2="80" y2="400" stroke="#333" stroke-width="2"/>
  <line x1="80" y1="400" x2="20" y2="400" stroke="#333" stroke-width="2" marker-end="url(#arrow)"/>
  <text x="50" y="415" text-anchor="middle" font-size="12" fill="#555">HTTP Response +</text>
  <text x="50" y="430" text-anchor="middle" font-size="12" fill="#555">X-Request-ID header</text>
  
  <!-- Legend -->
  <rect x="20" y="490" width="760" height="35" rx="4" fill="#FAFAFA" stroke="#DDD" stroke-width="1"/>
  <circle cx="50" cy="507" r="6" fill="#4A90D9"/>
  <text x="65" y="512" font-size="11" fill="#333">External</text>
  <circle cx="130" cy="507" r="6" fill="#4A8A4A"/>
  <text x="145" y="512" font-size="11" fill="#333">Server</text>
  <circle cx="200" cy="507" r="6" fill="#666"/>
  <text x="215" y="512" font-size="11" fill="#333">Middleware</text>
  <circle cx="280" cy="507" r="6" fill="#F9A825"/>
  <text x="295" y="512" font-size="11" fill="#333">Router</text>
  <circle cx="360" cy="507" r="6" fill="#1976D2"/>
  <text x="375" y="512" font-size="11" fill="#333">Handler</text>
  <circle cx="450" cy="507" r="6" fill="#9E9E9E"/>
  <text x="465" y="512" font-size="11" fill="#333">Module</text>
</svg>
